<svg xmlns="http://www.w3.org/2000/svg" xmlns:xlink="http://www.w3.org/1999/xlink" width="121.393" height="135.345" viewBox="0 0 121.393 135.345">
  <defs>
    <filter id="knight" x="0" y="0" width="121.393" height="135.345" filterUnits="userSpaceOnUse">
      <feOffset dy="2" input="SourceAlpha"/>
      <feGaussianBlur stdDeviation="15" result="blur"/>
      <feFlood flood-color="#ff6b2a" flood-opacity="0.659"/>
      <feComposite operator="in" in2="blur"/>
      <feComposite in="SourceGraphic"/>
    </filter>
  </defs>
  <g transform="matrix(1, 0, 0, 1, 0, 0)" filter="url(#knight)">
    <path id="knight-2" data-name="knight" d="M22.7,3a6.339,6.339,0,0,0-5.941,3.488,6.372,6.372,0,0,0-.545,3.052,27.208,27.208,0,0,0-3.761,3.107,13.173,13.173,0,0,0-3.706,9.592A15.227,15.227,0,0,0,9.78,27.362c.327.865.927,2.364,1.472,4.033a17.51,17.51,0,0,1,.981,4.742H10.325a1.746,1.746,0,0,0,.109,3.488l-3.107,4.2L7,44.258v4.088H38.393V44.258l-.327-.436-3.161-4.2a1.744,1.744,0,1,0,0-3.488H33.161c0-3.945-2.452-7.562-4.742-10.355A21.639,21.639,0,0,0,25.8,23.057c.313-.184.7-.4.926-.545.279-.177.429-.286.491-.327.49,0,.524.082,1.035.491a4.794,4.794,0,0,0,3,1.253,3.521,3.521,0,0,0,2.67-1.417,7.744,7.744,0,0,0,.709-1.035,4.47,4.47,0,0,0,.926-.491,2.817,2.817,0,0,0,1.09-1.744,3.68,3.68,0,0,0-.436-2.071,13.393,13.393,0,0,0-2.561-3.434,15.237,15.237,0,0,0-5.069-3.652c-.157-.068-.027.034-.109-.055a4.2,4.2,0,0,0-.817-.818c-.64-.47-2.03-.525-3.216-.654V3ZM14.848,39.625h15.7l3.924,5.232H10.924Z" transform="translate(38 40)" fill="#ff2800"/>
  </g>
</svg>
